<?xml version="1.0" encoding="UTF-8" standalone="no"?>
	<svg width="160" height="23" viewBox="0 0 160 23" fill="none" xmlns="http://www.w3.org/2000/svg">
	<path d="M8.98402 6.66532L9.91738 8.30889L11.1307 10.3177L12.4374 12.5091C12.9975 13.4222 13.1841 14.3353 13.1841 15.3397C13.1841 16.2528 12.9041 17.1659 12.4374 17.9876C11.4108 19.6312 9.63737 20.7269 7.58399 20.7269C5.62393 20.7269 3.75722 19.7225 2.73052 17.9876C2.26384 17.1659 1.98384 16.2528 1.98384 15.3397C1.98384 14.3353 2.17051 13.4222 2.73052 12.5091L4.03723 10.3177L5.25059 8.30889L6.18395 6.66532L5.15725 4.65652L1.05048 11.596C0.490464 12.6004 0.117121 13.6961 0.0237851 14.8831C-0.0695507 15.9788 0.117121 16.9832 0.490464 18.079C0.5838 18.4442 0.770472 18.8094 0.957143 19.0834C2.45052 21.3661 4.87725 22.827 7.67732 22.827C10.3841 22.827 12.9041 21.3661 14.3042 19.0834C14.4908 18.7181 14.6775 18.4442 14.7708 18.079C15.1442 17.0746 15.3309 15.9788 15.2375 14.8831C15.1442 13.7874 14.8642 12.6004 14.2108 11.596L10.1041 4.65652L8.98402 6.66532Z" fill="#0084F8"/>
	<path d="M7.67637 0L6.27634 2.37404C7.30303 4.0176 7.4897 4.47414 7.67637 4.65676C7.76971 4.47414 8.04972 4.0176 9.07641 2.37404L7.67637 0Z" fill="#0084F8"/>
	<path d="M25.4099 17.7142H32.4101V20.2709H22.1431V4.65701H25.4099V17.7142Z" fill="#0084F8"/>
	<path d="M46.2239 15.066C46.1306 16.7096 45.4772 18.0792 44.3572 19.0836C43.2372 20.088 41.6504 20.5446 39.7837 20.5446C37.7303 20.5446 36.1436 19.9054 34.9303 18.5358C33.7169 17.1661 33.1569 15.34 33.1569 12.9659V11.9615C33.1569 10.4093 33.4369 9.13095 33.9969 7.94393C34.5569 6.75691 35.3036 5.93513 36.3303 5.29596C37.357 4.6568 38.477 4.38287 39.8771 4.38287C41.7438 4.38287 43.2372 4.83942 44.3572 5.84382C45.4772 6.84822 46.1306 8.21785 46.3172 9.95273H42.9571C42.8638 8.94833 42.5838 8.21785 42.1171 7.76131C41.6504 7.30476 40.9038 7.12215 39.8771 7.12215C38.757 7.12215 37.917 7.48738 37.357 8.30916C36.797 9.03964 36.517 10.318 36.517 11.8702V13.0572C36.517 14.7921 36.797 15.9791 37.2637 16.8009C37.8237 17.6227 38.6637 17.9879 39.7837 17.9879C40.8104 17.9879 41.5571 17.8053 42.0238 17.3488C42.4905 16.8922 42.7705 16.1617 42.8638 15.2487H46.2239V15.066Z" fill="#0084F8"/>
	<path d="M67.1309 20.3622H63.8642L57.3307 10.0442V20.3622H54.0639V4.65701H57.3307L63.7708 14.9749V4.65701H67.0376V20.3622H67.1309Z" fill="#0084F8"/>
	<path d="M79.6381 13.514H73.2913V17.7142H80.7581V20.2709H70.0245V4.65701H80.7581V7.30498H73.2913V10.9573H79.6381V13.514Z" fill="#0084F8"/>
	<path d="M94.9448 7.21367H89.998V20.2709H86.7312V7.21367H81.8778V4.65701H94.9448V7.21367Z" fill="#0084F8"/>
	<path d="M109.505 15.7967L111.652 4.65701H114.919L111.372 20.3622H108.012L105.492 9.86163L102.879 20.3622H99.5185L95.9717 4.65701H99.2385L101.385 15.7967L103.999 4.65701H106.799L109.505 15.7967Z" fill="#0084F8"/>
	<path d="M129.946 12.8746C129.946 14.4268 129.666 15.7965 129.106 16.9835C128.546 18.1705 127.706 19.0836 126.679 19.7228C125.652 20.3619 124.439 20.6359 123.132 20.6359C121.826 20.6359 120.612 20.3619 119.586 19.7228C118.559 19.0836 117.719 18.1705 117.159 17.0748C116.599 15.8878 116.319 14.6095 116.319 13.0572V12.3267C116.319 10.7745 116.599 9.40484 117.159 8.21782C117.719 7.03081 118.559 6.11771 119.586 5.47855C120.612 4.83939 121.826 4.56546 123.132 4.56546C124.439 4.56546 125.652 4.83939 126.679 5.47855C127.706 6.11771 128.546 7.03081 129.106 8.21782C129.666 9.40484 129.946 10.7745 129.946 12.3267V12.8746ZM126.586 12.1441C126.586 10.5006 126.306 9.22222 125.652 8.40044C125.092 7.57866 124.159 7.12211 123.039 7.12211C121.919 7.12211 121.079 7.57866 120.426 8.40044C119.866 9.22222 119.492 10.5006 119.492 12.1441V12.8746C119.492 14.5182 119.772 15.7052 120.426 16.6183C120.986 17.5314 121.919 17.9879 123.039 17.9879C124.159 17.9879 124.999 17.5313 125.559 16.7096C126.119 15.8878 126.493 14.6095 126.493 12.9659V12.1441H126.586Z" fill="#0084F8"/>
	<path d="M138.253 14.6097H135.639V20.3622H132.372V4.65701H138.346C140.213 4.65701 141.706 5.11356 142.733 5.93534C143.759 6.75712 144.319 7.94414 144.319 9.40509C144.319 10.5008 144.039 11.4139 143.573 12.053C143.106 12.7835 142.359 13.3314 141.426 13.7879L144.879 20.1796V20.3622H141.333L138.253 14.6097ZM135.639 11.9617H138.346C139.186 11.9617 139.839 11.7791 140.306 11.3226C140.773 10.866 140.959 10.3182 140.959 9.5877C140.959 8.85723 140.773 8.30938 140.306 7.85283C139.839 7.39629 139.186 7.21367 138.346 7.21367H135.733V11.9617H135.639Z" fill="#0084F8"/>
	<path d="M151.786 14.0618L150.106 15.888V20.3622H146.839V4.65701H150.106V11.7791L151.6 9.86163L155.706 4.65701H159.813L154.12 11.5965L160 20.3622H155.893L151.786 14.0618Z" fill="#0084F8"/>
</svg>
